<?xml version="1.0" encoding="UTF-8"?>
<svg id="Livello_2" data-name="Livello 2" xmlns="http://www.w3.org/2000/svg" viewBox="0 0 433.53759 178.9453" width="140" height="57">
  <defs>
    <style>
      .cls-1 {
        fill: #fcfcfc;
      }
    </style>
  </defs>
  <g id="Livello_1-2" data-name="Livello 1">
    <path class="cls-1" d="M88.6147,55.7846c-.2451,6.8804-1.3506,11.1817-3.8086,15.8492-4.4228,8.3545-13.1475,13.3916-23.3462,13.3916-19.4131,0-32.5581-17.0782-32.5581-42.3882,0-12.0425,3.0708-22.7305,8.7232-30.7168C43.1533,4.1782,51.7548,0,61.8295,0c8.1089,0,13.7632,2.0893,19.2891,7.2505L85.4213,.2461h2.2124V24.3301h-2.8276c-3.4409-13.8838-10.3203-20.398-21.5019-20.398-8.1094,0-14.2525,3.6865-17.816,10.9351-3.5615,7.0029-5.5293,16.5869-5.5293,27.2778,0,23.7148,8.48,37.3525,23.2217,37.3525,12.2891,0,20.1533-8.7221,21.0117-23.7129h4.4224Z"/>
    <path class="cls-1" d="M150.90419,83.4297c-2.8237,.6118-4.913,.8598-6.7553,.8598-5.8994,0-8.72409-3.0708-9.4614-10.4443-4.4244,7.8623-8.7242,10.6924-16.5884,10.6924-10.0738,0-17.0777-6.5142-17.0777-15.8521,0-11.1816,11.4268-18.7998,32.1905-21.3784v-7.3735c0-8.7232-2.9488-12.2871-10.0747-12.2871-6.0191,0-10.3223,2.9497-10.3223,7.25,0,.1215,0,.4892,.126,.9824v1.9643c0,3.4439-1.7202,5.2852-5.0386,5.2852-2.5801,0-4.0527-1.4741-4.0527-4.1782,0-7.8628,9.3339-14.6201,20.1484-14.6201,7.0015,0,13.2681,2.8256,16.34181,7.3715,1.96479,2.8247,2.70069,6.5093,2.70069,12.9004v25.0669c0,8.3545,1.1084,10.9351,4.7949,10.9351,.86041,0,1.5962-.124,3.0688-.3701v3.1958Zm-17.6923-32.9297c-15.3584,2.7036-22.2408,8.1103-22.2408,17.5713,0,6.7588,3.9341,11.1792,10.2002,11.1792,5.2842,0,9.2149-2.8252,10.8135-7.7398,.85839-2.2119,1.22709-5.897,1.22709-10.4438v-10.5669Z"/>
    <path class="cls-1" d="M159.99359,64.3842h2.7007c.7383,3.9322,1.478,6.021,2.7051,8.5992,2.4575,4.7939,7.6162,7.8662,13.2695,7.8662,7.126,0,12.6553-4.7905,12.6553-11.0586,0-3.8086-1.8428-6.2666-6.8819-8.8472-.122-.1225-4.0556-1.9643-11.9199-5.5278-8.9653-4.1768-11.6714-7.6196-11.6714-14.7437,0-9.7089,7.4991-16.3432,18.4307-16.3432,4.6689,0,8.1103,1.1054,12.5327,3.9331l2.0898-5.0376h2.0875v19.0434h-2.7007c-1.1075-9.8291-5.28519-14.499-12.9043-14.499-6.6304,0-11.54889,4.4248-11.54889,10.1987,0,3.9322,1.59919,6.0201,6.88039,8.6016,1.7217,.8599,2.5811,1.3506,11.3027,5.0386,9.2188,4.0517,12.5347,8.1094,12.5347,15.3584,0,10.1963-8.1079,17.5688-19.6577,17.5688-5.6533,0-10.1968-1.5971-14.8672-5.0376l-2.9507,5.4068h-2.0864v-20.5201Z"/>
    <path class="cls-1" d="M253.12539,43.1284h-2.705c-.9825-4.2998-1.5957-6.2681-2.9483-8.7241-2.3369-4.4229-6.6347-7.128-11.3017-7.128-9.2159,0-14.6221,10.0787-14.6221,27.5235,0,17.0796,4.9111,25.9272,14.251,25.9272,7.6191,0,12.1621-5.4082,13.6386-16.2187h4.9131c-1.4726,13.1474-8.4746,20.2744-19.5351,20.2744-14.253,0-23.959-12.1655-23.959-29.9829,0-18.3076,9.9541-30.8408,24.3281-30.8408,5.2852,0,8.6016,1.3549,12.5342,5.163l3.1973-6.2666h2.2089v20.273Z"/>
    <path class="cls-1" d="M281.74849,74.7046c0,5.2837,1.2285,6.2675,8.7246,6.6362v2.457c-6.5107-.6128-9.709-.7368-13.6416-.7368-3.9316,0-7.1221,.124-13.76069,.7368v-2.457c7.61909-.3687,8.84759-1.3525,8.84759-6.6362V35.8789c0-6.3892-.8594-7.1255-8.7217-7.25v-2.0889c6.3867-.4907,13.0225-1.7212,18.5518-3.1948v51.3594Zm-.7354-71.5088c1.1075,1.3515,2.086,3.4399,2.086,4.9145,0,3.564-3.1934,6.7569-6.8799,6.7569-3.5625,0-6.5098-3.0728-6.5098-6.7569,0-1.8432,.73641-3.563,1.9639-4.9145,1.2266-1.3535,2.2109-1.7217,4.6689-1.7217,2.335,0,3.4414,.3682,4.6709,1.7217"/>
    <path class="cls-1" d="M346.49649,54.6792c0,17.3232-10.1972,30.101-24.08,30.101-14.0108,0-23.8379-12.4096-23.8379-30.2241,0-18.0625,10.0771-30.5971,24.45021-30.5971,14.00679,0,23.46769,12.4106,23.46769,30.7202m-37.5996-.2471c0,18.0625,4.5508,27.1553,13.5196,27.1553,8.8447,0,13.7587-9.4605,13.7587-26.7876,0-18.3062-4.5449-27.6441-13.3906-27.6441-9.0947,0-13.8877,9.5845-13.8877,27.2764"/>
    <path class="cls-1" d="M373.4038,74.7046c0,5.2866,1.22649,6.268,8.72259,6.6367v2.4565c-6.5117-.6147-9.707-.7378-13.6387-.7378-3.9287,0-7.125,.1231-13.7578,.7378v-2.4565c7.6104-.3687,8.8418-1.3501,8.8418-6.6367V12.6552c0-6.2661-.9814-7.1269-8.7226-7.1269V3.3183c6.1435-.4912,12.8984-1.7216,18.55471-3.1938V74.7046Z"/>
    <path class="cls-1" d="M407.18989,74.7046c0,5.2837,1.2266,6.2675,8.7217,6.6362v2.457c-6.51079-.6128-9.7061-.7368-13.6397-.7368-3.9306,0-7.123,.124-13.7607,.7368v-2.457c7.6181-.3687,8.84861-1.3525,8.84861-6.6362V35.8789c0-6.3892-.86231-7.1255-8.72651-7.25v-2.0889c6.3906-.4907,13.0283-1.7212,18.5566-3.1948v51.3594Zm-.7393-71.5088c1.1084,1.3515,2.0889,3.4399,2.0889,4.9145,0,3.564-3.1943,6.7569-6.8779,6.7569-3.5645,0-6.5127-3.0728-6.5127-6.7569,0-1.8432,.7353-3.563,1.9648-4.9145,1.2276-1.3535,2.209-1.7217,4.668-1.7217,2.3359,0,3.4404,.3682,4.6689,1.7217"/>
    <path class="cls-1" d="M414.71819,136.0957c-5.2441,3.5127-11.1953,9.2275-26.7705,16.7627-24.1016,11.6797-58.707,25.3603-105.7744,24.8447-39.2861-.4912-87.5293-14.3838-148.0332-33.2285-38.3569-11.9424-76.814-15.9014-116.25289-10.0088-.9478-.8301-12.8355-9.4297-14.6641-10.7197,39.6196-5.5869,91.8057,6.8076,130.31249,19.124,60.7651,19.4795,109.1709,33.793,148.5996,34.5312,47.0381,.8194,81.6904-12.8554,105.7871-24.4912,15.5537-7.5332,24.252-13.1513,29.5244-16.7109,.001-.001-2.7265-.0986-2.7285-.1035"/>
    <path class="cls-1" d="M284.74169,178.9453c-.8604,0-1.7227-.0078-2.586-.0127-39.54589-.501-87.83789-14.4385-148.3603-33.2842-26.4444-8.2363-52.918-12.6523-79.7183-12.6523-11.9404,0-23.9351,.875-36.0234,2.6826l-.5337,.082-.4009-.3574c-.7847-.7002-12.7935-9.3975-14.5684-10.6406l-2.5507-1.8037,3.059-.4307c6.7876-.9561,13.9346-1.3887,21.3047-1.3975,36.021,.0137,77.481,10.3174,109.51959,20.5635,60.749,19.4805,109.10251,33.749,148.2656,34.4746,1.3486,.0264,2.6894,.0322,4.0195,.0371,31.7178-.0049,57.6133-6.6084,78.3086-14.4638,8.5186-3.2471,16.1572-6.7022,22.9629-9.9971,15.4932-7.4981,21.248-13.0703,26.62691-16.6836l.31449-.2119,6.8516,.2568-3.1387,2.1182c-5.3008,3.5771-14.0645,9.2412-29.668,16.7988-6.9726,3.3633-14.8467,6.9053-23.6416,10.2236-21.1142,7.9903-47.5752,14.6983-80.0146,14.6983h-.0283Zm129.9599-42.3809l.0166-.4707-.0166,.4707Zm-311.17579-1.1338c-25.6557-6.663-53.8589-11.8398-79.1621-11.8369-6.1679,0-12.1679,.3067-17.9101,.9746,3.6953,2.6651,9.9267,7.1914,11.7583,8.6065,12.0307-1.7764,23.979-2.6338,35.8652-2.6338,16.5933,0,33.0527,1.6777,49.4487,4.8896"/>
    <g>
      <path class="cls-1" d="M317.17229,111.7265v10.0293c-2.3066,1.6465-5.0879,2.5235-8.0547,2.5235-6.54879,0-10.539-4.793-10.539-12.6992,0-7.6495,3.99021-12.5899,10.1748-12.5899,4.5752,0,7.539,2.6357,8.0869,7.1729h-2.5606c-.7324-3.2198-2.5254-4.7579-5.5263-4.7579-4.4658,0-7.2451,3.8799-7.2451,10.212,0,6.5146,2.7793,10.247,7.6474,10.247,1.82911,0,3.7334-.5488,5.5264-1.6093v-6.1495h-4.9414v-2.3789h7.4316Z"/>
      <path class="cls-1" d="M334.25729,99.4297c3.77051,0,5.1611,.1464,6.77151,.7685,2.45109,.916,3.95309,3.2578,3.95309,6.1475,0,3.2226-1.6836,5.4179-5.0156,6.625l6.4062,10.8711h-3.2949l-6.1475-10.4307h-4.2451v10.4307h-2.7461v-24.4121h4.3184Zm.14551,11.6025c2.96679,0,3.80859-.0752,4.94239-.4766,1.7187-.6211,2.7441-2.1972,2.7441-4.2451,0-1.8291-.8789-3.2949-2.3047-3.916-1.1709-.5137-1.9765-.5869-5.4541-.5869h-1.6455v9.2246h1.71781Z"/>
      <path class="cls-1" d="M375.90469,111.6172c0,7.539-3.9902,12.6259-9.91889,12.6259-6.00291,0-9.95611-5.0498-9.95611-12.7734,0-7.3193,4.1358-12.4795,9.95611-12.4795,5.89159,0,9.91889,5.125,9.91889,12.627Zm-16.9453-.1094c0,6.332,2.7071,10.3203,7.02641,10.3203,4.28219,0,6.98929-3.9522,6.98929-10.2109,0-6.1846-2.7442-10.212-6.98929-10.212-4.209,0-7.02641,4.0635-7.02641,10.1026Z"/>
      <path class="cls-1" d="M390.68499,99.4297v14.3818c0,3.7344,.1475,4.6855,.8789,5.7832,.9141,1.4268,2.709,2.2334,5.0137,2.2334,2.6719,0,4.6484-1.0977,5.3789-3.002,.40431-.9502,.4766-1.9013,.4766-5.0146v-14.3818h2.7451v14.4199c0,3.8789-.0733,4.539-.585,5.8555-1.1709,2.8925-4.0996,4.538-8.0156,4.538-3.9531,0-6.8799-1.6455-8.0527-4.538-.5118-1.3165-.584-1.9766-.584-5.8555v-14.4199h2.7441Z"/>
      <path class="cls-1" d="M422.4838,99.4297c3.62409,0,5.27149,.1464,6.73439,.6591,2.6729,.9151,4.3194,3.4043,4.3194,6.6602,0,3.0381-1.3917,5.3428-3.8067,6.3311-1.53709,.623-3.001,.8066-6.7334,.8066h-1.7939v9.9551h-2.7452v-24.4121h4.02541Zm.44139,12.0781c2.5235,0,3.4024-.0733,4.5352-.3291,2.0498-.4776,3.1846-2.0508,3.1846-4.4297,0-2.1231-.9141-3.7334-2.4893-4.3545-1.206-.4766-2.1943-.5869-5.5254-.5869h-1.4267v9.7002h1.7216Z"/>
    </g>
  </g>
</svg>
